<?xml version="1.0" encoding="utf-8"?>
<!-- assets/header.svg  ELight version with cute animated cats -->
<svg xmlns="http://www.w3.org/2000/svg" xmlns:xlink="http://www.w3.org/1999/xlink" width="1200" height="340" viewBox="0 0 1200 340" role="img" aria-label="Cute cats header (light)">
  <defs>
    <!-- light palette -->
    <linearGradient id="bgLight" x1="0" x2="0" y1="0" y2="1">
      <stop offset="0" stop-color="#f0f4ff"/>
      <stop offset="0.5" stop-color="#fef6f0"/>
      <stop offset="1" stop-color="#f0edff"/>
    </linearGradient>



    <!-- sparkle -->
    <g id="spark"><path d="M0,-8 L2,-2 L8,0 L2,2 L0,8 L-2,2 L-8,0 L-2,-2 Z" fill="#ffe98a"/></g>

    <!-- heart -->
    <g id="heart">
      <path d="M0,-4 C-2,-8 -8,-8 -8,-4 C-8,0 0,6 0,6 C0,6 8,0 8,-4 C8,-8 2,-8 0,-4 Z" fill="#ff6b8a" opacity="0.85"/>
    </g>

    <!-- paw print -->
    <g id="paw">
      <circle cx="0" cy="2" r="3" fill="#ffb4b4" opacity="0.5"/>
      <circle cx="-2.5" cy="-1.5" r="1.5" fill="#ffb4b4" opacity="0.5"/>
      <circle cx="2.5" cy="-1.5" r="1.5" fill="#ffb4b4" opacity="0.5"/>
      <circle cx="0" cy="-3.5" r="1.3" fill="#ffb4b4" opacity="0.5"/>
    </g>

    <!-- === Cute cat: Cream/Orange tabby === -->
    <g id="cat-cream">
      <!-- body -->
      <ellipse rx="22" ry="18" cx="0" cy="4" fill="#fff1cc" stroke="#d28a4e" stroke-width="1.2"/>
      <!-- stripes -->
      <path d="M-8,0 Q-6,-4 -4,0" stroke="#e8a855" stroke-width="1" fill="none" opacity="0.5"/>
      <path d="M4,0 Q6,-4 8,0" stroke="#e8a855" stroke-width="1" fill="none" opacity="0.5"/>
      <!-- head -->
      <circle cx="0" cy="-10" r="16" fill="#fff1cc" stroke="#d28a4e" stroke-width="1.2"/>
      <!-- ears -->
      <path d="M-14,-22 L-10,-34 L-4,-20" fill="#fff1cc" stroke="#d28a4e" stroke-width="1"/>
      <path d="M-12,-24 L-10,-31 L-6,-22" fill="#ffb8b8" opacity="0.6"/>
      <path d="M14,-22 L10,-34 L4,-20" fill="#fff1cc" stroke="#d28a4e" stroke-width="1"/>
      <path d="M12,-24 L10,-31 L6,-22" fill="#ffb8b8" opacity="0.6"/>
      <!-- eyes - big sparkly -->
      <g transform="translate(-6,-12)"><ellipse rx="5" ry="6" fill="#1b2430"/><ellipse rx="3" ry="4.5" fill="#5a3a1a" transform="translate(0,0.5)"/><circle cx="-1.5" cy="-2" r="1.8" fill="#fff"/><circle cx="1" cy="1" r="0.8" fill="#fff" opacity="0.7"/></g>
      <g transform="translate(6,-12)"><ellipse rx="5" ry="6" fill="#1b2430"/><ellipse rx="3" ry="4.5" fill="#5a3a1a" transform="translate(0,0.5)"/><circle cx="-1.5" cy="-2" r="1.8" fill="#fff"/><circle cx="1" cy="1" r="0.8" fill="#fff" opacity="0.7"/></g>
      <!-- blush -->
      <ellipse cx="-10" cy="-6" rx="4" ry="2.5" fill="#ffb4b4" opacity="0.6"/>
      <ellipse cx="10" cy="-6" rx="4" ry="2.5" fill="#ffb4b4" opacity="0.6"/>
      <!-- nose -->
      <path d="M-1,-6 L0,-5 L1,-6" fill="#e8889a" stroke="#e8889a" stroke-width="0.5"/>
      <!-- mouth -->
      <path d="M-3,-4 Q0,0 3,-4" stroke="#9a5f3a" stroke-width="0.8" fill="none"/>
      <!-- whiskers -->
      <line x1="-18" y1="-8" x2="-10" y2="-7" stroke="#d28a4e" stroke-width="0.6" opacity="0.5"/>
      <line x1="-18" y1="-5" x2="-10" y2="-5" stroke="#d28a4e" stroke-width="0.6" opacity="0.5"/>
      <line x1="18" y1="-8" x2="10" y2="-7" stroke="#d28a4e" stroke-width="0.6" opacity="0.5"/>
      <line x1="18" y1="-5" x2="10" y2="-5" stroke="#d28a4e" stroke-width="0.6" opacity="0.5"/>
      <!-- front paws -->
      <ellipse cx="-10" cy="18" rx="6" ry="4" fill="#fff1cc" stroke="#d28a4e" stroke-width="0.8"/>
      <ellipse cx="10" cy="18" rx="6" ry="4" fill="#fff1cc" stroke="#d28a4e" stroke-width="0.8"/>
      <!-- tail -->
      <path d="M22,8 C38,4 44,-14 56,-10 C62,-8 58,2 52,4" stroke="#d28a4e" stroke-width="3.5" fill="none" stroke-linecap="round"/>
    </g>

    <!-- === Cute cat: Grey === -->
    <g id="cat-grey">
      <ellipse rx="22" ry="18" cx="0" cy="4" fill="#d0d4dc" stroke="#8a8e96" stroke-width="1.2"/>
      <circle cx="0" cy="-10" r="16" fill="#d0d4dc" stroke="#8a8e96" stroke-width="1.2"/>
      <path d="M-14,-22 L-10,-34 L-4,-20" fill="#d0d4dc" stroke="#8a8e96" stroke-width="1"/>
      <path d="M-12,-24 L-10,-31 L-6,-22" fill="#c0b0c0" opacity="0.5"/>
      <path d="M14,-22 L10,-34 L4,-20" fill="#d0d4dc" stroke="#8a8e96" stroke-width="1"/>
      <path d="M12,-24 L10,-31 L6,-22" fill="#c0b0c0" opacity="0.5"/>
      <g transform="translate(-6,-12)"><ellipse rx="5" ry="6" fill="#1b2430"/><ellipse rx="3" ry="4.5" fill="#4a6a4a" transform="translate(0,0.5)"/><circle cx="-1.5" cy="-2" r="1.8" fill="#fff"/><circle cx="1" cy="1" r="0.8" fill="#fff" opacity="0.7"/></g>
      <g transform="translate(6,-12)"><ellipse rx="5" ry="6" fill="#1b2430"/><ellipse rx="3" ry="4.5" fill="#4a6a4a" transform="translate(0,0.5)"/><circle cx="-1.5" cy="-2" r="1.8" fill="#fff"/><circle cx="1" cy="1" r="0.8" fill="#fff" opacity="0.7"/></g>
      <ellipse cx="-10" cy="-6" rx="4" ry="2.5" fill="#e8b4c4" opacity="0.5"/>
      <ellipse cx="10" cy="-6" rx="4" ry="2.5" fill="#e8b4c4" opacity="0.5"/>
      <path d="M-1,-6 L0,-5 L1,-6" fill="#c08090" stroke="#c08090" stroke-width="0.5"/>
      <path d="M-3,-4 Q0,0 3,-4" stroke="#6a6a6a" stroke-width="0.8" fill="none"/>
      <line x1="-18" y1="-8" x2="-10" y2="-7" stroke="#8a8e96" stroke-width="0.6" opacity="0.5"/>
      <line x1="-18" y1="-5" x2="-10" y2="-5" stroke="#8a8e96" stroke-width="0.6" opacity="0.5"/>
      <line x1="18" y1="-8" x2="10" y2="-7" stroke="#8a8e96" stroke-width="0.6" opacity="0.5"/>
      <line x1="18" y1="-5" x2="10" y2="-5" stroke="#8a8e96" stroke-width="0.6" opacity="0.5"/>
      <ellipse cx="-10" cy="18" rx="6" ry="4" fill="#d0d4dc" stroke="#8a8e96" stroke-width="0.8"/>
      <ellipse cx="10" cy="18" rx="6" ry="4" fill="#d0d4dc" stroke="#8a8e96" stroke-width="0.8"/>
      <path d="M22,8 C38,4 44,-14 56,-10 C62,-8 58,2 52,4" stroke="#8a8e96" stroke-width="3.5" fill="none" stroke-linecap="round"/>
    </g>

    <!-- === Cute cat: White === -->
    <g id="cat-white">
      <ellipse rx="22" ry="18" cx="0" cy="4" fill="#fefefe" stroke="#c8c0b8" stroke-width="1.2"/>
      <circle cx="0" cy="-10" r="16" fill="#fefefe" stroke="#c8c0b8" stroke-width="1.2"/>
      <path d="M-14,-22 L-10,-34 L-4,-20" fill="#fefefe" stroke="#c8c0b8" stroke-width="1"/>
      <path d="M-12,-24 L-10,-31 L-6,-22" fill="#ffc8d0" opacity="0.4"/>
      <path d="M14,-22 L10,-34 L4,-20" fill="#fefefe" stroke="#c8c0b8" stroke-width="1"/>
      <path d="M12,-24 L10,-31 L6,-22" fill="#ffc8d0" opacity="0.4"/>
      <g transform="translate(-6,-12)"><ellipse rx="5" ry="6" fill="#1b2430"/><ellipse rx="3" ry="4.5" fill="#4488cc" transform="translate(0,0.5)"/><circle cx="-1.5" cy="-2" r="1.8" fill="#fff"/><circle cx="1" cy="1" r="0.8" fill="#fff" opacity="0.7"/></g>
      <g transform="translate(6,-12)"><ellipse rx="5" ry="6" fill="#1b2430"/><ellipse rx="3" ry="4.5" fill="#4488cc" transform="translate(0,0.5)"/><circle cx="-1.5" cy="-2" r="1.8" fill="#fff"/><circle cx="1" cy="1" r="0.8" fill="#fff" opacity="0.7"/></g>
      <ellipse cx="-10" cy="-6" rx="4" ry="2.5" fill="#ffb4b4" opacity="0.5"/>
      <ellipse cx="10" cy="-6" rx="4" ry="2.5" fill="#ffb4b4" opacity="0.5"/>
      <path d="M-1,-6 L0,-5 L1,-6" fill="#ffb0b8" stroke="#ffb0b8" stroke-width="0.5"/>
      <path d="M-3,-4 Q0,0 3,-4" stroke="#b0a0a0" stroke-width="0.8" fill="none"/>
      <line x1="-18" y1="-8" x2="-10" y2="-7" stroke="#c8c0b8" stroke-width="0.6" opacity="0.4"/>
      <line x1="-18" y1="-5" x2="-10" y2="-5" stroke="#c8c0b8" stroke-width="0.6" opacity="0.4"/>
      <line x1="18" y1="-8" x2="10" y2="-7" stroke="#c8c0b8" stroke-width="0.6" opacity="0.4"/>
      <line x1="18" y1="-5" x2="10" y2="-5" stroke="#c8c0b8" stroke-width="0.6" opacity="0.4"/>
      <ellipse cx="-10" cy="18" rx="6" ry="4" fill="#fefefe" stroke="#c8c0b8" stroke-width="0.8"/>
      <ellipse cx="10" cy="18" rx="6" ry="4" fill="#fefefe" stroke="#c8c0b8" stroke-width="0.8"/>
      <path d="M22,8 C38,4 44,-14 56,-10 C62,-8 58,2 52,4" stroke="#c8c0b8" stroke-width="3.5" fill="none" stroke-linecap="round"/>
    </g>

    <!-- === Cute cat: Calico (三毛猫) === -->
    <g id="cat-calico">
      <ellipse rx="22" ry="18" cx="0" cy="4" fill="#fff8ee" stroke="#c49050" stroke-width="1.2"/>
      <!-- calico patches -->
      <circle cx="-8" cy="2" r="7" fill="#f0a050" opacity="0.4"/>
      <circle cx="10" cy="6" r="6" fill="#3a3a3a" opacity="0.2"/>
      <circle cx="0" cy="-10" r="16" fill="#fff8ee" stroke="#c49050" stroke-width="1.2"/>
      <!-- head patches -->
      <circle cx="-8" cy="-14" r="6" fill="#f0a050" opacity="0.35"/>
      <circle cx="6" cy="-8" r="5" fill="#3a3a3a" opacity="0.15"/>
      <path d="M-14,-22 L-10,-34 L-4,-20" fill="#fff8ee" stroke="#c49050" stroke-width="1"/>
      <path d="M-12,-24 L-10,-31 L-6,-22" fill="#f0a050" opacity="0.4"/>
      <path d="M14,-22 L10,-34 L4,-20" fill="#fff8ee" stroke="#c49050" stroke-width="1"/>
      <path d="M12,-24 L10,-31 L6,-22" fill="#ffb8b8" opacity="0.4"/>
      <g transform="translate(-6,-12)"><ellipse rx="5" ry="6" fill="#1b2430"/><ellipse rx="3" ry="4.5" fill="#6a8a40" transform="translate(0,0.5)"/><circle cx="-1.5" cy="-2" r="1.8" fill="#fff"/><circle cx="1" cy="1" r="0.8" fill="#fff" opacity="0.7"/></g>
      <g transform="translate(6,-12)"><ellipse rx="5" ry="6" fill="#1b2430"/><ellipse rx="3" ry="4.5" fill="#6a8a40" transform="translate(0,0.5)"/><circle cx="-1.5" cy="-2" r="1.8" fill="#fff"/><circle cx="1" cy="1" r="0.8" fill="#fff" opacity="0.7"/></g>
      <ellipse cx="-10" cy="-6" rx="4" ry="2.5" fill="#ffb4b4" opacity="0.6"/>
      <ellipse cx="10" cy="-6" rx="4" ry="2.5" fill="#ffb4b4" opacity="0.6"/>
      <path d="M-1,-6 L0,-5 L1,-6" fill="#e8889a" stroke="#e8889a" stroke-width="0.5"/>
      <path d="M-3,-4 Q0,0 3,-4" stroke="#9a5f3a" stroke-width="0.8" fill="none"/>
      <line x1="-18" y1="-8" x2="-10" y2="-7" stroke="#c49050" stroke-width="0.6" opacity="0.5"/>
      <line x1="-18" y1="-5" x2="-10" y2="-5" stroke="#c49050" stroke-width="0.6" opacity="0.5"/>
      <line x1="18" y1="-8" x2="10" y2="-7" stroke="#c49050" stroke-width="0.6" opacity="0.5"/>
      <line x1="18" y1="-5" x2="10" y2="-5" stroke="#c49050" stroke-width="0.6" opacity="0.5"/>
      <ellipse cx="-10" cy="18" rx="6" ry="4" fill="#fff8ee" stroke="#c49050" stroke-width="0.8"/>
      <ellipse cx="10" cy="18" rx="6" ry="4" fill="#fff8ee" stroke="#c49050" stroke-width="0.8"/>
      <path d="M22,8 C38,4 44,-14 56,-10 C62,-8 58,2 52,4" stroke="#c49050" stroke-width="3.5" fill="none" stroke-linecap="round"/>
    </g>

    <!-- === Mini cat for small use === -->
    <g id="mini-cat-light">
      <circle cx="0" cy="0" r="10" fill="#fff1cc" stroke="#d28a4e" stroke-width="0.8"/>
      <path d="M-8,-6 L-6,-14 L-3,-6" fill="#fff1cc" stroke="#d28a4e" stroke-width="0.6"/>
      <path d="M8,-6 L6,-14 L3,-6" fill="#fff1cc" stroke="#d28a4e" stroke-width="0.6"/>
      <g transform="translate(-3,-2)"><ellipse rx="2.5" ry="3.5" fill="#1b2430"/><circle cx="-0.8" cy="-1" r="0.9" fill="#fff"/></g>
      <g transform="translate(3,-2)"><ellipse rx="2.5" ry="3.5" fill="#1b2430"/><circle cx="-0.8" cy="-1" r="0.9" fill="#fff"/></g>
      <ellipse cx="-5.5" cy="1" rx="2.5" ry="1.5" fill="#ffb4b4" opacity="0.5"/>
      <ellipse cx="5.5" cy="1" rx="2.5" ry="1.5" fill="#ffb4b4" opacity="0.5"/>
      <path d="M-1,2 Q0,4 1,2" stroke="#9a5f3a" stroke-width="0.6" fill="none"/>
    </g>

    <!-- yarn ball -->
    <g id="yarn">
      <circle cx="0" cy="0" r="8" fill="#ff8a9e"/>
      <path d="M-5,-3 Q0,-8 5,-3 Q8,2 3,5 Q-2,8 -5,3 Q-8,-2 -5,-3" stroke="#ff6b7a" stroke-width="0.8" fill="none"/>
      <path d="M-3,2 Q0,-3 3,2" stroke="#ff6b7a" stroke-width="0.6" fill="none"/>
    </g>
  </defs>

  <!-- background -->
  <rect width="100%" height="100%" fill="url(#bgLight)"/>

  <!-- subtle dot pattern -->
  <g opacity="0.04">
    <circle cx="50" cy="50" r="2" fill="#405770"/>
    <circle cx="150" cy="80" r="2" fill="#405770"/>
    <circle cx="250" cy="40" r="2" fill="#405770"/>
    <circle cx="350" cy="70" r="2" fill="#405770"/>
    <circle cx="950" cy="50" r="2" fill="#405770"/>
    <circle cx="1050" cy="80" r="2" fill="#405770"/>
    <circle cx="1150" cy="40" r="2" fill="#405770"/>
  </g>

  <!-- title -->
  <g transform="translate(72,84)">
    <text x="0" y="0" font-family="'Segoe UI', 'Helvetica Neue', sans-serif" font-size="44" fill="#0b2a3f" font-weight="800">Daisuke Muroka</text>
    <text x="0" y="46" font-family="'Segoe UI', 'Helvetica Neue', sans-serif" font-size="16" fill="#405770">Head of Corporate IT  ECorporate IT Division</text>
  </g>



  <!-- ================================================ -->
  <!-- CATS with dynamic animations                     -->
  <!-- ================================================ -->

  <!-- Cat 1: Cream tabby - jumping playfully (left side) -->
  <g transform="translate(100,255)">
    <g>
      <use xlink:href="#cat-cream" transform="scale(0.7)"/>
      <animateTransform attributeName="transform" type="translate" values="0,0; 0,-40; 0,-50; 0,-40; 0,0" dur="2.5s" repeatCount="indefinite" begin="0s"/>
    </g>
    <!-- floating heart when jumping -->
    <g transform="translate(18,-30)">
      <use xlink:href="#heart" transform="scale(0.6)"/>
      <animate attributeName="opacity" values="0;1;1;0" dur="2.5s" repeatCount="indefinite"/>
      <animateTransform attributeName="transform" type="translate" values="18,-30; 18,-50" dur="2.5s" repeatCount="indefinite"/>
    </g>
  </g>

  <!-- Cat 2: Grey cat - rolling on back (left-center) -->
  <g transform="translate(180,268)">
    <g>
      <use xlink:href="#cat-grey" transform="scale(0.65)"/>
      <animateTransform attributeName="transform" type="rotate" values="0 0 0; 15 0 0; -15 0 0; 10 0 0; -10 0 0; 0 0 0" dur="4s" repeatCount="indefinite" begin="0.5s"/>
    </g>
  </g>

  <!-- Cat 3: White cat - stretching up then curling  -->
  <g transform="translate(240,252)">
    <g>
      <use xlink:href="#cat-white" transform="scale(0.6)"/>
      <animateTransform attributeName="transform" type="scale" values="1,1; 1,0.8; 1,1.15; 1,1" dur="4.5s" repeatCount="indefinite" begin="1s"/>
    </g>
  </g>

  <!-- Cat 4: Calico - chasing yarn ball across -->
  <g transform="translate(60,290)">
    <g>
      <use xlink:href="#cat-calico" transform="scale(0.55)"/>
      <animateTransform attributeName="transform" type="translate" values="0,0; 80,-10; 160,0; 220,-5; 260,0" dur="6s" repeatCount="indefinite" begin="0.3s"/>
    </g>
    <!-- yarn ball rolling ahead -->
    <g transform="translate(40,-2)">
      <use xlink:href="#yarn" transform="scale(0.6)"/>
      <animateTransform attributeName="transform" type="translate" values="40,-2; 120,-14; 200,-2; 260,-8; 300,-2" dur="6s" repeatCount="indefinite" begin="0.3s"/>
    </g>
  </g>

  <!-- Cat 5: Cream - batting paw at butterfly -->
  <g transform="translate(700,230)">
    <g>
      <use xlink:href="#cat-cream" transform="scale(0.65)"/>
      <animateTransform attributeName="transform" type="translate" values="0,0; 0,-8; 4,-20; 0,-8; 0,0" dur="3s" repeatCount="indefinite" begin="0.8s"/>
    </g>
    <!-- butterfly -->
    <g transform="translate(10,-40)">
      <path d="M0,0 C-6,-8 -14,-6 -10,0 C-14,6 -6,8 0,0" fill="#b4d8ff" opacity="0.8">
        <animateTransform attributeName="transform" type="scale" values="1,1; 0.3,1; 1,1" dur="0.4s" repeatCount="indefinite"/>
      </path>
      <path d="M0,0 C6,-8 14,-6 10,0 C14,6 6,8 0,0" fill="#d4b8ff" opacity="0.8">
        <animateTransform attributeName="transform" type="scale" values="1,1; 0.3,1; 1,1" dur="0.4s" repeatCount="indefinite"/>
      </path>
      <animateTransform attributeName="transform" type="translate" values="10,-40; 14,-55; 8,-45; 16,-50; 10,-40" dur="3s" repeatCount="indefinite" begin="0.8s"/>
    </g>
  </g>

  <!-- Cat 6: Cream cat - grooming (center-left) -->
  <g transform="translate(380,240)">
    <g>
      <use xlink:href="#cat-cream" transform="scale(0.7)"/>
      <animateTransform attributeName="transform" type="scale" values="1,1; 1.05,0.95; 1,1; 0.95,1.05; 1,1" dur="3.5s" repeatCount="indefinite"/>
    </g>
    <!-- heart above -->
    <g transform="translate(0,-40)">
      <use xlink:href="#heart" transform="scale(0.5)"/>
      <animate attributeName="opacity" values="0;0.8;0" dur="3.5s" repeatCount="indefinite"/>
      <animateTransform attributeName="transform" type="translate" values="0,-40; 0,-55" dur="3.5s" repeatCount="indefinite"/>
    </g>
  </g>

  <!-- Cat 7: White kitten - prancing (center) -->
  <g transform="translate(480,260)">
    <g>
      <use xlink:href="#cat-white" transform="scale(0.6)"/>
      <animateTransform attributeName="transform" type="translate" values="0,0; 15,-25; 30,0; 15,-15; 0,0" dur="3.2s" repeatCount="indefinite" begin="0.4s"/>
    </g>
  </g>

  <!-- Cat 13: Calico - lying belly up (center) -->
  <g transform="translate(530,280)">
    <g>
      <use xlink:href="#cat-calico" transform="scale(0.55) rotate(180)"/>
      <animateTransform attributeName="transform" type="rotate" values="0 0 0; 5 0 0; -5 0 0; 0 0 0" dur="2.5s" repeatCount="indefinite" begin="0.8s"/>
    </g>
  </g>

  <!-- Cat 14: Grey kitten - big jump across center -->
  <g transform="translate(420,290)">
    <g>
      <use xlink:href="#cat-grey" transform="scale(0.5)"/>
      <animateTransform attributeName="transform" type="translate" values="0,0; 60,-50; 120,-60; 180,-40; 240,0" dur="4.5s" repeatCount="indefinite" begin="1.5s"/>
    </g>
  </g>

  <!-- Cat 15: Cream tiny kitten - curious peek -->
  <g transform="translate(600,250)">
    <g>
      <use xlink:href="#cat-cream" transform="scale(0.45)"/>
      <animateTransform attributeName="transform" type="translate" values="0,0; -5,-8; 0,-12; 5,-8; 0,0" dur="2.8s" repeatCount="indefinite" begin="2s"/>
    </g>
  </g>

  <!-- Cat 8: Calico kitten tumbling -->
  <g transform="translate(550,275)">
    <g>
      <use xlink:href="#cat-calico" transform="scale(0.5)"/>
      <animateTransform attributeName="transform" type="rotate" values="0 0 0; 360 0 0" dur="3s" repeatCount="indefinite" begin="1.2s"/>
    </g>
  </g>

  <!-- Cat 9: Grey - sitting tail swish (right side) -->
  <g transform="translate(850,250)">
    <use xlink:href="#cat-grey" transform="scale(0.65)"/>
  </g>

  <!-- Cat 10: Cream - pouncing (right) -->
  <g transform="translate(950,260)">
    <g>
      <use xlink:href="#cat-cream" transform="scale(0.6)"/>
      <animateTransform attributeName="transform" type="translate" values="0,0; -30,-35; -60,0; -30,-20; 0,0" dur="4s" repeatCount="indefinite" begin="0.6s"/>
    </g>
  </g>

  <!-- Cat 11: White - sleeping/purring (right corner) -->
  <g transform="translate(1060,275)">
    <g>
      <use xlink:href="#cat-white" transform="scale(0.55)"/>
      <!-- gentle breathing -->
      <animateTransform attributeName="transform" type="scale" values="1,1; 1.03,1.03; 1,1" dur="3s" repeatCount="indefinite"/>
    </g>
    <!-- zzz -->
    <g transform="translate(20,-20)">
      <text font-family="sans-serif" font-size="10" fill="#8899aa" opacity="0.6">z</text>
      <animate attributeName="opacity" values="0;0.6;0" dur="2.5s" repeatCount="indefinite"/>
      <animateTransform attributeName="transform" type="translate" values="20,-20; 24,-35" dur="2.5s" repeatCount="indefinite"/>
    </g>
    <g transform="translate(28,-30)">
      <text font-family="sans-serif" font-size="8" fill="#8899aa" opacity="0.4">z</text>
      <animate attributeName="opacity" values="0;0.4;0" dur="2.5s" repeatCount="indefinite" begin="0.8s"/>
      <animateTransform attributeName="transform" type="translate" values="28,-30; 32,-45" dur="2.5s" repeatCount="indefinite" begin="0.8s"/>
    </g>
  </g>

  <!-- Cat 12: Tiny calico kitten near center -->
  <g transform="translate(620,285)">
    <g>
      <use xlink:href="#cat-calico" transform="scale(0.4)"/>
      <animateTransform attributeName="transform" type="translate" values="0,0; 10,-15; 20,0; 10,-10; 0,0" dur="3.5s" repeatCount="indefinite" begin="1.5s"/>
    </g>
  </g>

  <!-- Floating paw prints decoration -->
  <g opacity="0.3">
    <g transform="translate(80,310)"><use xlink:href="#paw" transform="scale(0.8) rotate(-15)"/></g>
    <g transform="translate(140,300)"><use xlink:href="#paw" transform="scale(0.7) rotate(10)"/></g>
    <g transform="translate(780,305)"><use xlink:href="#paw" transform="scale(0.8) rotate(-5)"/></g>
    <g transform="translate(880,300)"><use xlink:href="#paw" transform="scale(0.7) rotate(20)"/></g>
    <g transform="translate(1100,310)"><use xlink:href="#paw" transform="scale(0.6) rotate(-10)"/></g>
  </g>

  <!-- sakura petals floating -->
  <g>
    <path d="M0,0 C4,6 12,10 20,8 C12,2 6,-2 0,0 Z" fill="#ffd9e6" opacity="0.8">
      <animateTransform attributeName="transform" type="translate" values="100,10; 400,100; 800,250" dur="12s" repeatCount="indefinite"/>
      <animate attributeName="opacity" values="0.8;0.5;0" dur="12s" repeatCount="indefinite"/>
    </path>
    <path d="M0,0 C4,6 12,10 20,8 C12,2 6,-2 0,0 Z" fill="#ffe0ec" opacity="0.7">
      <animateTransform attributeName="transform" type="translate" values="300,20; 600,120; 1000,280" dur="14s" repeatCount="indefinite" begin="3s"/>
      <animate attributeName="opacity" values="0.7;0.4;0" dur="14s" repeatCount="indefinite" begin="3s"/>
    </path>
    <path d="M0,0 C4,6 12,10 20,8 C12,2 6,-2 0,0 Z" fill="#ffc8d8" opacity="0.6">
      <animateTransform attributeName="transform" type="translate" values="700,5; 900,80; 1150,200" dur="10s" repeatCount="indefinite" begin="6s"/>
      <animate attributeName="opacity" values="0.6;0.3;0" dur="10s" repeatCount="indefinite" begin="6s"/>
    </path>
  </g>

  <!-- Floating hearts -->
  <g>
    <g transform="translate(200,180)">
      <use xlink:href="#heart" transform="scale(0.5)"/>
      <animate attributeName="opacity" values="0;0.7;0" dur="4s" repeatCount="indefinite" begin="1s"/>
      <animateTransform attributeName="transform" type="translate" values="200,180; 203,150" dur="4s" repeatCount="indefinite" begin="1s"/>
    </g>
    <g transform="translate(550,170)">
      <use xlink:href="#heart" transform="scale(0.4)"/>
      <animate attributeName="opacity" values="0;0.6;0" dur="3.5s" repeatCount="indefinite" begin="2s"/>
      <animateTransform attributeName="transform" type="translate" values="550,170; 553,140" dur="3.5s" repeatCount="indefinite" begin="2s"/>
    </g>
    <g transform="translate(800,175)">
      <use xlink:href="#heart" transform="scale(0.6)"/>
      <animate attributeName="opacity" values="0;0.8;0" dur="5s" repeatCount="indefinite" begin="0s"/>
      <animateTransform attributeName="transform" type="translate" values="800,175; 798,140" dur="5s" repeatCount="indefinite" begin="0s"/>
    </g>
    <g transform="translate(400,190)">
      <use xlink:href="#heart" transform="scale(0.45)"/>
      <animate attributeName="opacity" values="0;0.7;0" dur="4.5s" repeatCount="indefinite" begin="1.5s"/>
      <animateTransform attributeName="transform" type="translate" values="400,190; 402,155" dur="4.5s" repeatCount="indefinite" begin="1.5s"/>
    </g>
    <g transform="translate(1000,185)">
      <use xlink:href="#heart" transform="scale(0.35)"/>
      <animate attributeName="opacity" values="0;0.6;0" dur="3.8s" repeatCount="indefinite" begin="2.5s"/>
      <animateTransform attributeName="transform" type="translate" values="1000,185; 1002,155" dur="3.8s" repeatCount="indefinite" begin="2.5s"/>
    </g>
  </g>

  <!-- sparkles -->
  <g transform="translate(1080,36)">
    <use xlink:href="#spark" transform="scale(0.9)"><animateTransform attributeName="transform" type="scale" values="0.9;1.3;0.9" dur="2.4s" repeatCount="indefinite"/></use>
  </g>
  <g transform="translate(1020,80)">
    <use xlink:href="#spark" transform="scale(0.6)"><animateTransform attributeName="transform" type="scale" values="0.6;1.0;0.6" dur="3.2s" repeatCount="indefinite" begin="1s"/></use>
  </g>
  <g transform="translate(60,300)">
    <use xlink:href="#spark" transform="scale(0.5)"><animateTransform attributeName="transform" type="scale" values="0.5;0.9;0.5" dur="2.8s" repeatCount="indefinite" begin="0.5s"/></use>
  </g>

  <!-- footer caption -->
  <text x="72" y="332" font-family="'Segoe UI', 'Helvetica Neue', sans-serif" font-size="13" fill="#405770">
    Corporate IT Division  ENurturing internal foundations with the warmth of everyday moments.
  </text>
</svg>